<mxfile host="app.diagrams.net" modified="2023-06-15T20:51:54.471Z" agent="Mozilla/5.0 (X11; Linux x86_64; rv:109.0) Gecko/20100101 Firefox/114.0" etag="zhWfQB8-J7jkA0dBlEO1" version="21.4.0" type="device">
  <diagram name="Страница 1" id="u0vHXIiKnzVc3-9p44hn">
    <mxGraphModel dx="819" dy="451" grid="0" gridSize="10" guides="1" tooltips="1" connect="1" arrows="1" fold="1" page="0" pageScale="1" pageWidth="1169" pageHeight="827" math="0" shadow="0">
      <root>
        <mxCell id="0" />
        <mxCell id="1" parent="0" />
        <mxCell id="RlHMgZMCsV71h-hDCZHG-15" value="" style="group;flipH=1;" vertex="1" connectable="0" parent="1">
          <mxGeometry x="490" y="434" width="21" height="22" as="geometry" />
        </mxCell>
        <mxCell id="RlHMgZMCsV71h-hDCZHG-16" value="" style="ellipse;whiteSpace=wrap;html=1;aspect=fixed;movable=1;resizable=1;rotatable=1;deletable=1;editable=1;locked=0;connectable=1;" vertex="1" parent="RlHMgZMCsV71h-hDCZHG-15">
          <mxGeometry x="1" y="1" width="20" height="20" as="geometry" />
        </mxCell>
        <mxCell id="RlHMgZMCsV71h-hDCZHG-17" value="" style="rounded=0;whiteSpace=wrap;html=1;fillColor=default;strokeColor=none;movable=1;resizable=1;rotatable=1;deletable=1;editable=1;locked=0;connectable=1;" vertex="1" parent="RlHMgZMCsV71h-hDCZHG-15">
          <mxGeometry width="11" height="22" as="geometry" />
        </mxCell>
        <mxCell id="RlHMgZMCsV71h-hDCZHG-12" value="" style="group;flipH=1;" vertex="1" connectable="0" parent="1">
          <mxGeometry x="490" y="319" width="21" height="22" as="geometry" />
        </mxCell>
        <mxCell id="RlHMgZMCsV71h-hDCZHG-13" value="" style="ellipse;whiteSpace=wrap;html=1;aspect=fixed;movable=1;resizable=1;rotatable=1;deletable=1;editable=1;locked=0;connectable=1;" vertex="1" parent="RlHMgZMCsV71h-hDCZHG-12">
          <mxGeometry x="1" y="1" width="20" height="20" as="geometry" />
        </mxCell>
        <mxCell id="RlHMgZMCsV71h-hDCZHG-14" value="" style="rounded=0;whiteSpace=wrap;html=1;fillColor=default;strokeColor=none;movable=1;resizable=1;rotatable=1;deletable=1;editable=1;locked=0;connectable=1;" vertex="1" parent="RlHMgZMCsV71h-hDCZHG-12">
          <mxGeometry width="11" height="22" as="geometry" />
        </mxCell>
        <mxCell id="tU8dhyVxo_mKHJtzlASq-189" value="" style="ellipse;whiteSpace=wrap;html=1;aspect=fixed;movable=1;resizable=1;rotatable=1;deletable=1;editable=1;locked=0;connectable=1;rotation=90;" parent="1" vertex="1">
          <mxGeometry x="400" y="360" width="20" height="20" as="geometry" />
        </mxCell>
        <mxCell id="tU8dhyVxo_mKHJtzlASq-190" value="" style="rounded=0;whiteSpace=wrap;html=1;strokeColor=none;" parent="1" vertex="1">
          <mxGeometry x="399" y="370" width="22" height="11" as="geometry" />
        </mxCell>
        <mxCell id="tU8dhyVxo_mKHJtzlASq-30" value="GetUserByPublicKey" style="text;html=1;strokeColor=none;fillColor=none;align=center;verticalAlign=middle;whiteSpace=wrap;rounded=0;fontFamily=Ubuntu Mono;fontSource=https%3A%2F%2Ffonts.googleapis.com%2Fcss%3Ffamily%3DUbuntu%2BMono;fontSize=8;movable=1;resizable=1;rotatable=1;deletable=1;editable=1;locked=0;connectable=1;" parent="1" vertex="1">
          <mxGeometry x="255" y="70" width="105" height="10" as="geometry" />
        </mxCell>
        <mxCell id="tU8dhyVxo_mKHJtzlASq-31" value="GetUserByUsername" style="text;html=1;strokeColor=none;fillColor=none;align=center;verticalAlign=middle;whiteSpace=wrap;rounded=0;fontFamily=Ubuntu Mono;fontSource=https%3A%2F%2Ffonts.googleapis.com%2Fcss%3Ffamily%3DUbuntu%2BMono;fontSize=8;movable=1;resizable=1;rotatable=1;deletable=1;editable=1;locked=0;connectable=1;" parent="1" vertex="1">
          <mxGeometry x="255" y="100" width="105" height="10" as="geometry" />
        </mxCell>
        <mxCell id="tU8dhyVxo_mKHJtzlASq-32" value="SetUsername" style="text;html=1;strokeColor=none;fillColor=none;align=center;verticalAlign=middle;whiteSpace=wrap;rounded=0;fontFamily=Ubuntu Mono;fontSource=https%3A%2F%2Ffonts.googleapis.com%2Fcss%3Ffamily%3DUbuntu%2BMono;fontSize=8;movable=1;resizable=1;rotatable=1;deletable=1;editable=1;locked=0;connectable=1;" parent="1" vertex="1">
          <mxGeometry x="255" y="130" width="105" height="10" as="geometry" />
        </mxCell>
        <mxCell id="tU8dhyVxo_mKHJtzlASq-33" value="GetFileMetadata" style="text;html=1;strokeColor=none;fillColor=none;align=center;verticalAlign=middle;whiteSpace=wrap;rounded=0;fontFamily=Ubuntu Mono;fontSource=https%3A%2F%2Ffonts.googleapis.com%2Fcss%3Ffamily%3DUbuntu%2BMono;fontSize=8;movable=1;resizable=1;rotatable=1;deletable=1;editable=1;locked=0;connectable=1;" parent="1" vertex="1">
          <mxGeometry x="255" y="160" width="105" height="10" as="geometry" />
        </mxCell>
        <mxCell id="tU8dhyVxo_mKHJtzlASq-34" value="GetAllFilesMetadata" style="text;html=1;strokeColor=none;fillColor=none;align=center;verticalAlign=middle;whiteSpace=wrap;rounded=0;fontFamily=Ubuntu Mono;fontSource=https%3A%2F%2Ffonts.googleapis.com%2Fcss%3Ffamily%3DUbuntu%2BMono;fontSize=8;movable=1;resizable=1;rotatable=1;deletable=1;editable=1;locked=0;connectable=1;" parent="1" vertex="1">
          <mxGeometry x="255" y="190" width="105" height="10" as="geometry" />
        </mxCell>
        <mxCell id="tU8dhyVxo_mKHJtzlASq-35" value="InsertFileMetadata" style="text;html=1;strokeColor=none;fillColor=none;align=center;verticalAlign=middle;whiteSpace=wrap;rounded=0;fontFamily=Ubuntu Mono;fontSource=https%3A%2F%2Ffonts.googleapis.com%2Fcss%3Ffamily%3DUbuntu%2BMono;fontSize=8;movable=1;resizable=1;rotatable=1;deletable=1;editable=1;locked=0;connectable=1;" parent="1" vertex="1">
          <mxGeometry x="255" y="220" width="105" height="10" as="geometry" />
        </mxCell>
        <mxCell id="tU8dhyVxo_mKHJtzlASq-36" value="DeleteFileMetadata" style="text;html=1;strokeColor=none;fillColor=none;align=center;verticalAlign=middle;whiteSpace=wrap;rounded=0;fontFamily=Ubuntu Mono;fontSource=https%3A%2F%2Ffonts.googleapis.com%2Fcss%3Ffamily%3DUbuntu%2BMono;fontSize=8;movable=1;resizable=1;rotatable=1;deletable=1;editable=1;locked=0;connectable=1;" parent="1" vertex="1">
          <mxGeometry x="255" y="250" width="105" height="10" as="geometry" />
        </mxCell>
        <mxCell id="tU8dhyVxo_mKHJtzlASq-37" value="GrantAccess" style="text;html=1;strokeColor=none;fillColor=none;align=center;verticalAlign=middle;whiteSpace=wrap;rounded=0;fontFamily=Ubuntu Mono;fontSource=https%3A%2F%2Ffonts.googleapis.com%2Fcss%3Ffamily%3DUbuntu%2BMono;fontSize=8;movable=1;resizable=1;rotatable=1;deletable=1;editable=1;locked=0;connectable=1;" parent="1" vertex="1">
          <mxGeometry x="255" y="280" width="105" height="10" as="geometry" />
        </mxCell>
        <mxCell id="tU8dhyVxo_mKHJtzlASq-40" value="RevokeAccess" style="text;html=1;strokeColor=none;fillColor=none;align=center;verticalAlign=middle;whiteSpace=wrap;rounded=0;fontFamily=Ubuntu Mono;fontSource=https%3A%2F%2Ffonts.googleapis.com%2Fcss%3Ffamily%3DUbuntu%2BMono;fontSize=8;movable=1;resizable=1;rotatable=1;deletable=1;editable=1;locked=0;connectable=1;" parent="1" vertex="1">
          <mxGeometry x="255" y="310" width="105" height="10" as="geometry" />
        </mxCell>
        <mxCell id="tU8dhyVxo_mKHJtzlASq-46" value="" style="endArrow=none;html=1;rounded=0;movable=1;resizable=1;rotatable=1;deletable=1;editable=1;locked=0;connectable=1;exitX=1;exitY=0.5;exitDx=0;exitDy=0;entryX=-0.003;entryY=0.167;entryDx=0;entryDy=0;entryPerimeter=0;" parent="1" source="tU8dhyVxo_mKHJtzlASq-53" target="tU8dhyVxo_mKHJtzlASq-73" edge="1">
          <mxGeometry width="50" height="50" relative="1" as="geometry">
            <mxPoint x="145" y="89.92000000000002" as="sourcePoint" />
            <mxPoint x="150" y="90" as="targetPoint" />
          </mxGeometry>
        </mxCell>
        <mxCell id="tU8dhyVxo_mKHJtzlASq-47" value="" style="endArrow=none;html=1;rounded=0;movable=1;resizable=1;rotatable=1;deletable=1;editable=1;locked=0;connectable=1;entryX=-0.004;entryY=0.367;entryDx=0;entryDy=0;entryPerimeter=0;exitX=1;exitY=0.5;exitDx=0;exitDy=0;" parent="1" source="tU8dhyVxo_mKHJtzlASq-55" target="tU8dhyVxo_mKHJtzlASq-73" edge="1">
          <mxGeometry width="50" height="50" relative="1" as="geometry">
            <mxPoint x="145" y="150.10000000000002" as="sourcePoint" />
            <mxPoint x="150" y="140" as="targetPoint" />
          </mxGeometry>
        </mxCell>
        <mxCell id="tU8dhyVxo_mKHJtzlASq-48" value="" style="endArrow=none;html=1;rounded=0;movable=1;resizable=1;rotatable=1;deletable=1;editable=1;locked=0;connectable=1;exitX=1;exitY=0.5;exitDx=0;exitDy=0;entryX=-0.002;entryY=0.467;entryDx=0;entryDy=0;entryPerimeter=0;" parent="1" source="tU8dhyVxo_mKHJtzlASq-57" target="tU8dhyVxo_mKHJtzlASq-73" edge="1">
          <mxGeometry width="50" height="50" relative="1" as="geometry">
            <mxPoint x="145" y="180" as="sourcePoint" />
            <mxPoint x="150" y="180" as="targetPoint" />
          </mxGeometry>
        </mxCell>
        <mxCell id="tU8dhyVxo_mKHJtzlASq-49" value="" style="endArrow=none;html=1;rounded=0;movable=1;resizable=1;rotatable=1;deletable=1;editable=1;locked=0;connectable=1;exitX=1;exitY=0.5;exitDx=0;exitDy=0;entryX=0;entryY=0.767;entryDx=0;entryDy=0;entryPerimeter=0;" parent="1" source="tU8dhyVxo_mKHJtzlASq-56" target="tU8dhyVxo_mKHJtzlASq-73" edge="1">
          <mxGeometry width="50" height="50" relative="1" as="geometry">
            <mxPoint x="150" y="270" as="sourcePoint" />
            <mxPoint x="150" y="270" as="targetPoint" />
          </mxGeometry>
        </mxCell>
        <mxCell id="tU8dhyVxo_mKHJtzlASq-50" value="" style="endArrow=none;html=1;rounded=0;movable=1;resizable=1;rotatable=1;deletable=1;editable=1;locked=0;connectable=1;exitX=1;exitY=0.5;exitDx=0;exitDy=0;entryX=0;entryY=0.567;entryDx=0;entryDy=0;entryPerimeter=0;" parent="1" source="tU8dhyVxo_mKHJtzlASq-58" target="tU8dhyVxo_mKHJtzlASq-73" edge="1">
          <mxGeometry width="50" height="50" relative="1" as="geometry">
            <mxPoint x="145" y="210" as="sourcePoint" />
            <mxPoint x="150" y="210" as="targetPoint" />
          </mxGeometry>
        </mxCell>
        <mxCell id="tU8dhyVxo_mKHJtzlASq-51" value="" style="endArrow=none;html=1;rounded=0;movable=1;resizable=1;rotatable=1;deletable=1;editable=1;locked=0;connectable=1;exitX=1;exitY=0.5;exitDx=0;exitDy=0;entryX=0;entryY=0.667;entryDx=0;entryDy=0;entryPerimeter=0;" parent="1" source="tU8dhyVxo_mKHJtzlASq-59" target="tU8dhyVxo_mKHJtzlASq-73" edge="1">
          <mxGeometry width="50" height="50" relative="1" as="geometry">
            <mxPoint x="145" y="240" as="sourcePoint" />
            <mxPoint x="150" y="240" as="targetPoint" />
          </mxGeometry>
        </mxCell>
        <mxCell id="tU8dhyVxo_mKHJtzlASq-52" value="" style="endArrow=none;html=1;rounded=0;movable=1;resizable=1;rotatable=1;deletable=1;editable=1;locked=0;connectable=1;entryX=0;entryY=0.867;entryDx=0;entryDy=0;entryPerimeter=0;exitX=1;exitY=0.5;exitDx=0;exitDy=0;" parent="1" source="tU8dhyVxo_mKHJtzlASq-60" target="tU8dhyVxo_mKHJtzlASq-73" edge="1">
          <mxGeometry width="50" height="50" relative="1" as="geometry">
            <mxPoint x="140" y="300.1" as="sourcePoint" />
            <mxPoint x="155" y="300.0000000000001" as="targetPoint" />
          </mxGeometry>
        </mxCell>
        <mxCell id="tU8dhyVxo_mKHJtzlASq-53" value="" style="ellipse;whiteSpace=wrap;html=1;aspect=fixed;movable=1;resizable=1;rotatable=1;deletable=1;editable=1;locked=0;connectable=1;" parent="1" vertex="1">
          <mxGeometry x="130" y="85" width="10" height="10" as="geometry" />
        </mxCell>
        <mxCell id="tU8dhyVxo_mKHJtzlASq-54" value="" style="ellipse;whiteSpace=wrap;html=1;aspect=fixed;movable=1;resizable=1;rotatable=1;deletable=1;editable=1;locked=0;connectable=1;" parent="1" vertex="1">
          <mxGeometry x="130" y="115" width="10" height="10" as="geometry" />
        </mxCell>
        <mxCell id="tU8dhyVxo_mKHJtzlASq-55" value="" style="ellipse;whiteSpace=wrap;html=1;aspect=fixed;movable=1;resizable=1;rotatable=1;deletable=1;editable=1;locked=0;connectable=1;" parent="1" vertex="1">
          <mxGeometry x="130" y="145" width="10" height="10" as="geometry" />
        </mxCell>
        <mxCell id="tU8dhyVxo_mKHJtzlASq-56" value="" style="ellipse;whiteSpace=wrap;html=1;aspect=fixed;movable=1;resizable=1;rotatable=1;deletable=1;editable=1;locked=0;connectable=1;" parent="1" vertex="1">
          <mxGeometry x="130" y="265" width="10" height="10" as="geometry" />
        </mxCell>
        <mxCell id="tU8dhyVxo_mKHJtzlASq-57" value="" style="ellipse;whiteSpace=wrap;html=1;aspect=fixed;movable=1;resizable=1;rotatable=1;deletable=1;editable=1;locked=0;connectable=1;" parent="1" vertex="1">
          <mxGeometry x="130" y="175" width="10" height="10" as="geometry" />
        </mxCell>
        <mxCell id="tU8dhyVxo_mKHJtzlASq-58" value="" style="ellipse;whiteSpace=wrap;html=1;aspect=fixed;movable=1;resizable=1;rotatable=1;deletable=1;editable=1;locked=0;connectable=1;" parent="1" vertex="1">
          <mxGeometry x="130" y="205" width="10" height="10" as="geometry" />
        </mxCell>
        <mxCell id="tU8dhyVxo_mKHJtzlASq-59" value="" style="ellipse;whiteSpace=wrap;html=1;aspect=fixed;movable=1;resizable=1;rotatable=1;deletable=1;editable=1;locked=0;connectable=1;" parent="1" vertex="1">
          <mxGeometry x="130" y="235" width="10" height="10" as="geometry" />
        </mxCell>
        <mxCell id="tU8dhyVxo_mKHJtzlASq-60" value="" style="ellipse;whiteSpace=wrap;html=1;aspect=fixed;movable=1;resizable=1;rotatable=1;deletable=1;editable=1;locked=0;connectable=1;" parent="1" vertex="1">
          <mxGeometry x="130" y="295" width="10" height="10" as="geometry" />
        </mxCell>
        <mxCell id="tU8dhyVxo_mKHJtzlASq-72" value="" style="endArrow=none;html=1;rounded=0;movable=1;resizable=1;rotatable=1;deletable=1;editable=1;locked=0;connectable=1;entryX=-0.002;entryY=0.267;entryDx=0;entryDy=0;entryPerimeter=0;exitX=1;exitY=0.5;exitDx=0;exitDy=0;" parent="1" source="tU8dhyVxo_mKHJtzlASq-54" target="tU8dhyVxo_mKHJtzlASq-73" edge="1">
          <mxGeometry width="50" height="50" relative="1" as="geometry">
            <mxPoint x="140" y="120" as="sourcePoint" />
            <mxPoint x="155" y="119.92000000000007" as="targetPoint" />
          </mxGeometry>
        </mxCell>
        <mxCell id="tU8dhyVxo_mKHJtzlASq-101" value="" style="endArrow=none;html=1;rounded=0;entryX=0;entryY=0.5;entryDx=0;entryDy=0;exitX=1;exitY=0.167;exitDx=0;exitDy=0;exitPerimeter=0;" parent="1" source="tU8dhyVxo_mKHJtzlASq-73" target="tU8dhyVxo_mKHJtzlASq-78" edge="1">
          <mxGeometry width="50" height="50" relative="1" as="geometry">
            <mxPoint x="250" y="120" as="sourcePoint" />
            <mxPoint x="270" y="90" as="targetPoint" />
          </mxGeometry>
        </mxCell>
        <mxCell id="tU8dhyVxo_mKHJtzlASq-102" value="" style="group" parent="1" vertex="1" connectable="0">
          <mxGeometry x="300" y="79" width="21" height="22" as="geometry" />
        </mxCell>
        <mxCell id="tU8dhyVxo_mKHJtzlASq-78" value="" style="ellipse;whiteSpace=wrap;html=1;aspect=fixed;movable=1;resizable=1;rotatable=1;deletable=1;editable=1;locked=0;connectable=1;" parent="tU8dhyVxo_mKHJtzlASq-102" vertex="1">
          <mxGeometry y="1" width="20" height="20" as="geometry" />
        </mxCell>
        <mxCell id="tU8dhyVxo_mKHJtzlASq-79" value="" style="rounded=0;whiteSpace=wrap;html=1;fillColor=default;strokeColor=none;movable=1;resizable=1;rotatable=1;deletable=1;editable=1;locked=0;connectable=1;" parent="tU8dhyVxo_mKHJtzlASq-102" vertex="1">
          <mxGeometry x="10" width="11" height="22" as="geometry" />
        </mxCell>
        <mxCell id="tU8dhyVxo_mKHJtzlASq-103" value="" style="endArrow=none;html=1;rounded=0;entryX=0;entryY=0.5;entryDx=0;entryDy=0;exitX=1;exitY=0.267;exitDx=0;exitDy=0;exitPerimeter=0;" parent="1" source="tU8dhyVxo_mKHJtzlASq-73" target="tU8dhyVxo_mKHJtzlASq-85" edge="1">
          <mxGeometry width="50" height="50" relative="1" as="geometry">
            <mxPoint x="260" y="110" as="sourcePoint" />
            <mxPoint x="280" y="110" as="targetPoint" />
          </mxGeometry>
        </mxCell>
        <mxCell id="tU8dhyVxo_mKHJtzlASq-104" value="" style="group" parent="1" vertex="1" connectable="0">
          <mxGeometry x="300" y="109" width="21" height="22" as="geometry" />
        </mxCell>
        <mxCell id="tU8dhyVxo_mKHJtzlASq-85" value="" style="ellipse;whiteSpace=wrap;html=1;aspect=fixed;movable=1;resizable=1;rotatable=1;deletable=1;editable=1;locked=0;connectable=1;" parent="tU8dhyVxo_mKHJtzlASq-104" vertex="1">
          <mxGeometry y="1" width="20" height="20" as="geometry" />
        </mxCell>
        <mxCell id="tU8dhyVxo_mKHJtzlASq-86" value="" style="rounded=0;whiteSpace=wrap;html=1;fillColor=default;strokeColor=none;movable=1;resizable=1;rotatable=1;deletable=1;editable=1;locked=0;connectable=1;" parent="tU8dhyVxo_mKHJtzlASq-104" vertex="1">
          <mxGeometry x="10" width="11" height="22" as="geometry" />
        </mxCell>
        <mxCell id="tU8dhyVxo_mKHJtzlASq-105" value="" style="endArrow=none;html=1;rounded=0;entryX=0;entryY=0.5;entryDx=0;entryDy=0;exitX=1;exitY=0.367;exitDx=0;exitDy=0;exitPerimeter=0;" parent="1" source="tU8dhyVxo_mKHJtzlASq-73" target="tU8dhyVxo_mKHJtzlASq-87" edge="1">
          <mxGeometry width="50" height="50" relative="1" as="geometry">
            <mxPoint x="260" y="139" as="sourcePoint" />
            <mxPoint x="280" y="139" as="targetPoint" />
          </mxGeometry>
        </mxCell>
        <mxCell id="tU8dhyVxo_mKHJtzlASq-106" value="" style="endArrow=none;html=1;rounded=0;entryX=0;entryY=0.5;entryDx=0;entryDy=0;exitX=1;exitY=0.467;exitDx=0;exitDy=0;exitPerimeter=0;" parent="1" source="tU8dhyVxo_mKHJtzlASq-73" target="tU8dhyVxo_mKHJtzlASq-89" edge="1">
          <mxGeometry width="50" height="50" relative="1" as="geometry">
            <mxPoint x="260" y="169" as="sourcePoint" />
            <mxPoint x="280" y="169" as="targetPoint" />
          </mxGeometry>
        </mxCell>
        <mxCell id="tU8dhyVxo_mKHJtzlASq-107" value="" style="endArrow=none;html=1;rounded=0;entryX=0;entryY=0.5;entryDx=0;entryDy=0;exitX=1;exitY=0.567;exitDx=0;exitDy=0;exitPerimeter=0;" parent="1" source="tU8dhyVxo_mKHJtzlASq-73" target="tU8dhyVxo_mKHJtzlASq-91" edge="1">
          <mxGeometry width="50" height="50" relative="1" as="geometry">
            <mxPoint x="260" y="199" as="sourcePoint" />
            <mxPoint x="280" y="199" as="targetPoint" />
          </mxGeometry>
        </mxCell>
        <mxCell id="tU8dhyVxo_mKHJtzlASq-108" value="" style="group" parent="1" vertex="1" connectable="0">
          <mxGeometry x="300" y="199" width="21" height="22" as="geometry" />
        </mxCell>
        <mxCell id="tU8dhyVxo_mKHJtzlASq-91" value="" style="ellipse;whiteSpace=wrap;html=1;aspect=fixed;movable=1;resizable=1;rotatable=1;deletable=1;editable=1;locked=0;connectable=1;" parent="tU8dhyVxo_mKHJtzlASq-108" vertex="1">
          <mxGeometry y="1" width="20" height="20" as="geometry" />
        </mxCell>
        <mxCell id="tU8dhyVxo_mKHJtzlASq-92" value="" style="rounded=0;whiteSpace=wrap;html=1;fillColor=default;strokeColor=none;movable=1;resizable=1;rotatable=1;deletable=1;editable=1;locked=0;connectable=1;" parent="tU8dhyVxo_mKHJtzlASq-108" vertex="1">
          <mxGeometry x="10" width="11" height="22" as="geometry" />
        </mxCell>
        <mxCell id="tU8dhyVxo_mKHJtzlASq-109" value="" style="endArrow=none;html=1;rounded=0;entryX=0;entryY=0.5;entryDx=0;entryDy=0;exitX=1;exitY=0.667;exitDx=0;exitDy=0;exitPerimeter=0;" parent="1" source="tU8dhyVxo_mKHJtzlASq-73" target="tU8dhyVxo_mKHJtzlASq-93" edge="1">
          <mxGeometry width="50" height="50" relative="1" as="geometry">
            <mxPoint x="260" y="230" as="sourcePoint" />
            <mxPoint x="280" y="230" as="targetPoint" />
          </mxGeometry>
        </mxCell>
        <mxCell id="tU8dhyVxo_mKHJtzlASq-110" value="" style="endArrow=none;html=1;rounded=0;entryX=0;entryY=0.5;entryDx=0;entryDy=0;exitX=1;exitY=0.767;exitDx=0;exitDy=0;exitPerimeter=0;" parent="1" source="tU8dhyVxo_mKHJtzlASq-73" target="tU8dhyVxo_mKHJtzlASq-95" edge="1">
          <mxGeometry width="50" height="50" relative="1" as="geometry">
            <mxPoint x="260" y="260" as="sourcePoint" />
            <mxPoint x="280" y="260" as="targetPoint" />
          </mxGeometry>
        </mxCell>
        <mxCell id="tU8dhyVxo_mKHJtzlASq-111" value="" style="group" parent="1" vertex="1" connectable="0">
          <mxGeometry x="300" y="259" width="21" height="22" as="geometry" />
        </mxCell>
        <mxCell id="tU8dhyVxo_mKHJtzlASq-95" value="" style="ellipse;whiteSpace=wrap;html=1;aspect=fixed;movable=1;resizable=1;rotatable=1;deletable=1;editable=1;locked=0;connectable=1;" parent="tU8dhyVxo_mKHJtzlASq-111" vertex="1">
          <mxGeometry y="1" width="20" height="20" as="geometry" />
        </mxCell>
        <mxCell id="tU8dhyVxo_mKHJtzlASq-96" value="" style="rounded=0;whiteSpace=wrap;html=1;fillColor=default;strokeColor=none;movable=1;resizable=1;rotatable=1;deletable=1;editable=1;locked=0;connectable=1;" parent="tU8dhyVxo_mKHJtzlASq-111" vertex="1">
          <mxGeometry x="10" width="11" height="22" as="geometry" />
        </mxCell>
        <mxCell id="tU8dhyVxo_mKHJtzlASq-112" value="" style="group" parent="1" vertex="1" connectable="0">
          <mxGeometry x="300" y="229" width="21" height="22" as="geometry" />
        </mxCell>
        <mxCell id="tU8dhyVxo_mKHJtzlASq-93" value="" style="ellipse;whiteSpace=wrap;html=1;aspect=fixed;movable=1;resizable=1;rotatable=1;deletable=1;editable=1;locked=0;connectable=1;" parent="tU8dhyVxo_mKHJtzlASq-112" vertex="1">
          <mxGeometry y="1" width="20" height="20" as="geometry" />
        </mxCell>
        <mxCell id="tU8dhyVxo_mKHJtzlASq-94" value="" style="rounded=0;whiteSpace=wrap;html=1;fillColor=default;strokeColor=none;movable=1;resizable=1;rotatable=1;deletable=1;editable=1;locked=0;connectable=1;" parent="tU8dhyVxo_mKHJtzlASq-112" vertex="1">
          <mxGeometry x="10" width="11" height="22" as="geometry" />
        </mxCell>
        <mxCell id="tU8dhyVxo_mKHJtzlASq-113" value="" style="endArrow=none;html=1;rounded=0;entryX=0;entryY=0.5;entryDx=0;entryDy=0;exitX=1;exitY=0.867;exitDx=0;exitDy=0;exitPerimeter=0;" parent="1" source="tU8dhyVxo_mKHJtzlASq-73" target="tU8dhyVxo_mKHJtzlASq-97" edge="1">
          <mxGeometry width="50" height="50" relative="1" as="geometry">
            <mxPoint x="270" y="280" as="sourcePoint" />
            <mxPoint x="290" y="280" as="targetPoint" />
          </mxGeometry>
        </mxCell>
        <mxCell id="tU8dhyVxo_mKHJtzlASq-114" value="" style="endArrow=none;html=1;rounded=0;entryX=0;entryY=0.5;entryDx=0;entryDy=0;exitX=1;exitY=0.967;exitDx=0;exitDy=0;exitPerimeter=0;" parent="1" source="tU8dhyVxo_mKHJtzlASq-73" target="tU8dhyVxo_mKHJtzlASq-99" edge="1">
          <mxGeometry width="50" height="50" relative="1" as="geometry">
            <mxPoint x="260" y="319" as="sourcePoint" />
            <mxPoint x="280" y="319" as="targetPoint" />
          </mxGeometry>
        </mxCell>
        <mxCell id="tU8dhyVxo_mKHJtzlASq-116" value="" style="group" parent="1" vertex="1" connectable="0">
          <mxGeometry x="300" y="139" width="21" height="22" as="geometry" />
        </mxCell>
        <mxCell id="tU8dhyVxo_mKHJtzlASq-87" value="" style="ellipse;whiteSpace=wrap;html=1;aspect=fixed;movable=1;resizable=1;rotatable=1;deletable=1;editable=1;locked=0;connectable=1;" parent="tU8dhyVxo_mKHJtzlASq-116" vertex="1">
          <mxGeometry y="1" width="20" height="20" as="geometry" />
        </mxCell>
        <mxCell id="tU8dhyVxo_mKHJtzlASq-88" value="" style="rounded=0;whiteSpace=wrap;html=1;fillColor=default;strokeColor=none;movable=1;resizable=1;rotatable=1;deletable=1;editable=1;locked=0;connectable=1;" parent="tU8dhyVxo_mKHJtzlASq-116" vertex="1">
          <mxGeometry x="10" width="11" height="22" as="geometry" />
        </mxCell>
        <mxCell id="tU8dhyVxo_mKHJtzlASq-24" value="" style="ellipse;whiteSpace=wrap;html=1;aspect=fixed;movable=1;resizable=1;rotatable=1;deletable=1;editable=1;locked=0;connectable=1;" parent="tU8dhyVxo_mKHJtzlASq-116" vertex="1">
          <mxGeometry x="5.5" y="6" width="10" height="10" as="geometry" />
        </mxCell>
        <mxCell id="tU8dhyVxo_mKHJtzlASq-117" value="" style="group" parent="1" vertex="1" connectable="0">
          <mxGeometry x="300" y="169" width="21" height="22" as="geometry" />
        </mxCell>
        <mxCell id="tU8dhyVxo_mKHJtzlASq-89" value="" style="ellipse;whiteSpace=wrap;html=1;aspect=fixed;movable=1;resizable=1;rotatable=1;deletable=1;editable=1;locked=0;connectable=1;" parent="tU8dhyVxo_mKHJtzlASq-117" vertex="1">
          <mxGeometry y="1" width="20" height="20" as="geometry" />
        </mxCell>
        <mxCell id="tU8dhyVxo_mKHJtzlASq-90" value="" style="rounded=0;whiteSpace=wrap;html=1;fillColor=default;strokeColor=none;movable=1;resizable=1;rotatable=1;deletable=1;editable=1;locked=0;connectable=1;" parent="tU8dhyVxo_mKHJtzlASq-117" vertex="1">
          <mxGeometry x="10" width="11" height="22" as="geometry" />
        </mxCell>
        <mxCell id="tU8dhyVxo_mKHJtzlASq-119" value="" style="group" parent="1" vertex="1" connectable="0">
          <mxGeometry x="300" y="289" width="21" height="22" as="geometry" />
        </mxCell>
        <mxCell id="tU8dhyVxo_mKHJtzlASq-97" value="" style="ellipse;whiteSpace=wrap;html=1;aspect=fixed;movable=1;resizable=1;rotatable=1;deletable=1;editable=1;locked=0;connectable=1;" parent="tU8dhyVxo_mKHJtzlASq-119" vertex="1">
          <mxGeometry y="1" width="20" height="20" as="geometry" />
        </mxCell>
        <mxCell id="tU8dhyVxo_mKHJtzlASq-98" value="" style="rounded=0;whiteSpace=wrap;html=1;fillColor=default;strokeColor=none;movable=1;resizable=1;rotatable=1;deletable=1;editable=1;locked=0;connectable=1;" parent="tU8dhyVxo_mKHJtzlASq-119" vertex="1">
          <mxGeometry x="10" width="11" height="22" as="geometry" />
        </mxCell>
        <mxCell id="tU8dhyVxo_mKHJtzlASq-121" value="" style="group" parent="1" vertex="1" connectable="0">
          <mxGeometry x="300" y="319" width="21" height="22" as="geometry" />
        </mxCell>
        <mxCell id="tU8dhyVxo_mKHJtzlASq-99" value="" style="ellipse;whiteSpace=wrap;html=1;aspect=fixed;movable=1;resizable=1;rotatable=1;deletable=1;editable=1;locked=0;connectable=1;" parent="tU8dhyVxo_mKHJtzlASq-121" vertex="1">
          <mxGeometry y="1" width="20" height="20" as="geometry" />
        </mxCell>
        <mxCell id="tU8dhyVxo_mKHJtzlASq-100" value="" style="rounded=0;whiteSpace=wrap;html=1;fillColor=default;strokeColor=none;movable=1;resizable=1;rotatable=1;deletable=1;editable=1;locked=0;connectable=1;" parent="tU8dhyVxo_mKHJtzlASq-121" vertex="1">
          <mxGeometry x="10" width="11" height="22" as="geometry" />
        </mxCell>
        <mxCell id="tU8dhyVxo_mKHJtzlASq-14" value="" style="endArrow=none;html=1;rounded=0;movable=1;resizable=1;rotatable=1;deletable=1;editable=1;locked=0;connectable=1;exitX=1;exitY=0.5;exitDx=0;exitDy=0;entryX=-0.003;entryY=0.167;entryDx=0;entryDy=0;entryPerimeter=0;" parent="1" source="tU8dhyVxo_mKHJtzlASq-22" target="tU8dhyVxo_mKHJtzlASq-2" edge="1">
          <mxGeometry width="50" height="50" relative="1" as="geometry">
            <mxPoint x="339" y="89.92" as="sourcePoint" />
            <mxPoint x="344" y="90" as="targetPoint" />
          </mxGeometry>
        </mxCell>
        <mxCell id="tU8dhyVxo_mKHJtzlASq-16" value="" style="endArrow=none;html=1;rounded=0;movable=1;resizable=1;rotatable=1;deletable=1;editable=1;locked=0;connectable=1;entryX=-0.004;entryY=0.367;entryDx=0;entryDy=0;entryPerimeter=0;exitX=1;exitY=0.5;exitDx=0;exitDy=0;" parent="1" source="tU8dhyVxo_mKHJtzlASq-24" target="tU8dhyVxo_mKHJtzlASq-2" edge="1">
          <mxGeometry width="50" height="50" relative="1" as="geometry">
            <mxPoint x="339" y="150.1" as="sourcePoint" />
            <mxPoint x="344" y="140" as="targetPoint" />
          </mxGeometry>
        </mxCell>
        <mxCell id="tU8dhyVxo_mKHJtzlASq-17" value="" style="endArrow=none;html=1;rounded=0;movable=1;resizable=1;rotatable=1;deletable=1;editable=1;locked=0;connectable=1;exitX=1;exitY=0.5;exitDx=0;exitDy=0;entryX=-0.002;entryY=0.467;entryDx=0;entryDy=0;entryPerimeter=0;" parent="1" source="tU8dhyVxo_mKHJtzlASq-26" target="tU8dhyVxo_mKHJtzlASq-2" edge="1">
          <mxGeometry width="50" height="50" relative="1" as="geometry">
            <mxPoint x="339" y="180" as="sourcePoint" />
            <mxPoint x="344" y="180" as="targetPoint" />
          </mxGeometry>
        </mxCell>
        <mxCell id="tU8dhyVxo_mKHJtzlASq-18" value="" style="endArrow=none;html=1;rounded=0;movable=1;resizable=1;rotatable=1;deletable=1;editable=1;locked=0;connectable=1;exitX=1;exitY=0.5;exitDx=0;exitDy=0;entryX=0;entryY=0.767;entryDx=0;entryDy=0;entryPerimeter=0;" parent="1" source="tU8dhyVxo_mKHJtzlASq-25" target="tU8dhyVxo_mKHJtzlASq-2" edge="1">
          <mxGeometry width="50" height="50" relative="1" as="geometry">
            <mxPoint x="344" y="270" as="sourcePoint" />
            <mxPoint x="344" y="270" as="targetPoint" />
          </mxGeometry>
        </mxCell>
        <mxCell id="tU8dhyVxo_mKHJtzlASq-19" value="" style="endArrow=none;html=1;rounded=0;movable=1;resizable=1;rotatable=1;deletable=1;editable=1;locked=0;connectable=1;exitX=1;exitY=0.5;exitDx=0;exitDy=0;entryX=0;entryY=0.567;entryDx=0;entryDy=0;entryPerimeter=0;" parent="1" source="tU8dhyVxo_mKHJtzlASq-27" target="tU8dhyVxo_mKHJtzlASq-2" edge="1">
          <mxGeometry width="50" height="50" relative="1" as="geometry">
            <mxPoint x="339" y="210" as="sourcePoint" />
            <mxPoint x="344" y="210" as="targetPoint" />
          </mxGeometry>
        </mxCell>
        <mxCell id="tU8dhyVxo_mKHJtzlASq-20" value="" style="endArrow=none;html=1;rounded=0;movable=1;resizable=1;rotatable=1;deletable=1;editable=1;locked=0;connectable=1;exitX=1;exitY=0.5;exitDx=0;exitDy=0;entryX=0;entryY=0.667;entryDx=0;entryDy=0;entryPerimeter=0;" parent="1" source="tU8dhyVxo_mKHJtzlASq-28" target="tU8dhyVxo_mKHJtzlASq-2" edge="1">
          <mxGeometry width="50" height="50" relative="1" as="geometry">
            <mxPoint x="339" y="240" as="sourcePoint" />
            <mxPoint x="344" y="240" as="targetPoint" />
          </mxGeometry>
        </mxCell>
        <mxCell id="tU8dhyVxo_mKHJtzlASq-21" value="" style="endArrow=none;html=1;rounded=0;movable=1;resizable=1;rotatable=1;deletable=1;editable=1;locked=0;connectable=1;entryX=0;entryY=0.867;entryDx=0;entryDy=0;entryPerimeter=0;exitX=1;exitY=0.5;exitDx=0;exitDy=0;" parent="1" source="tU8dhyVxo_mKHJtzlASq-29" target="tU8dhyVxo_mKHJtzlASq-2" edge="1">
          <mxGeometry width="50" height="50" relative="1" as="geometry">
            <mxPoint x="334" y="300.1" as="sourcePoint" />
            <mxPoint x="349" y="300.0000000000001" as="targetPoint" />
          </mxGeometry>
        </mxCell>
        <mxCell id="tU8dhyVxo_mKHJtzlASq-22" value="" style="ellipse;whiteSpace=wrap;html=1;aspect=fixed;movable=1;resizable=1;rotatable=1;deletable=1;editable=1;locked=0;connectable=1;" parent="1" vertex="1">
          <mxGeometry x="305" y="85" width="10" height="10" as="geometry" />
        </mxCell>
        <mxCell id="tU8dhyVxo_mKHJtzlASq-23" value="" style="ellipse;whiteSpace=wrap;html=1;aspect=fixed;movable=1;resizable=1;rotatable=1;deletable=1;editable=1;locked=0;connectable=1;" parent="1" vertex="1">
          <mxGeometry x="305" y="115" width="10" height="10" as="geometry" />
        </mxCell>
        <mxCell id="tU8dhyVxo_mKHJtzlASq-25" value="" style="ellipse;whiteSpace=wrap;html=1;aspect=fixed;movable=1;resizable=1;rotatable=1;deletable=1;editable=1;locked=0;connectable=1;" parent="1" vertex="1">
          <mxGeometry x="305" y="265" width="10" height="10" as="geometry" />
        </mxCell>
        <mxCell id="tU8dhyVxo_mKHJtzlASq-26" value="" style="ellipse;whiteSpace=wrap;html=1;aspect=fixed;movable=1;resizable=1;rotatable=1;deletable=1;editable=1;locked=0;connectable=1;" parent="1" vertex="1">
          <mxGeometry x="305" y="175" width="10" height="10" as="geometry" />
        </mxCell>
        <mxCell id="tU8dhyVxo_mKHJtzlASq-27" value="" style="ellipse;whiteSpace=wrap;html=1;aspect=fixed;movable=1;resizable=1;rotatable=1;deletable=1;editable=1;locked=0;connectable=1;" parent="1" vertex="1">
          <mxGeometry x="305" y="205" width="10" height="10" as="geometry" />
        </mxCell>
        <mxCell id="tU8dhyVxo_mKHJtzlASq-28" value="" style="ellipse;whiteSpace=wrap;html=1;aspect=fixed;movable=1;resizable=1;rotatable=1;deletable=1;editable=1;locked=0;connectable=1;" parent="1" vertex="1">
          <mxGeometry x="305" y="235" width="10" height="10" as="geometry" />
        </mxCell>
        <mxCell id="tU8dhyVxo_mKHJtzlASq-29" value="" style="ellipse;whiteSpace=wrap;html=1;aspect=fixed;movable=1;resizable=1;rotatable=1;deletable=1;editable=1;locked=0;connectable=1;" parent="1" vertex="1">
          <mxGeometry x="305" y="295" width="10" height="10" as="geometry" />
        </mxCell>
        <mxCell id="tU8dhyVxo_mKHJtzlASq-38" value="" style="endArrow=none;html=1;rounded=0;movable=1;resizable=1;rotatable=1;deletable=1;editable=1;locked=0;connectable=1;entryX=0;entryY=0.967;entryDx=0;entryDy=0;entryPerimeter=0;exitX=1;exitY=0.5;exitDx=0;exitDy=0;" parent="1" source="tU8dhyVxo_mKHJtzlASq-39" target="tU8dhyVxo_mKHJtzlASq-2" edge="1">
          <mxGeometry width="50" height="50" relative="1" as="geometry">
            <mxPoint x="334" y="330.1" as="sourcePoint" />
            <mxPoint x="349" y="330.0000000000001" as="targetPoint" />
          </mxGeometry>
        </mxCell>
        <mxCell id="tU8dhyVxo_mKHJtzlASq-39" value="" style="ellipse;whiteSpace=wrap;html=1;aspect=fixed;movable=1;resizable=1;rotatable=1;deletable=1;editable=1;locked=0;connectable=1;" parent="1" vertex="1">
          <mxGeometry x="305" y="325" width="10" height="10" as="geometry" />
        </mxCell>
        <mxCell id="tU8dhyVxo_mKHJtzlASq-41" value="" style="endArrow=none;html=1;rounded=0;movable=1;resizable=1;rotatable=1;deletable=1;editable=1;locked=0;connectable=1;entryX=-0.002;entryY=0.267;entryDx=0;entryDy=0;entryPerimeter=0;exitX=1;exitY=0.5;exitDx=0;exitDy=0;" parent="1" source="tU8dhyVxo_mKHJtzlASq-23" target="tU8dhyVxo_mKHJtzlASq-2" edge="1">
          <mxGeometry width="50" height="50" relative="1" as="geometry">
            <mxPoint x="334" y="120" as="sourcePoint" />
            <mxPoint x="349" y="119.92000000000002" as="targetPoint" />
          </mxGeometry>
        </mxCell>
        <mxCell id="tU8dhyVxo_mKHJtzlASq-10" value="" style="endArrow=none;html=1;rounded=0;movable=1;resizable=1;rotatable=1;deletable=1;editable=1;locked=0;connectable=1;exitX=0.999;exitY=0.166;exitDx=0;exitDy=0;exitPerimeter=0;entryX=0;entryY=0.5;entryDx=0;entryDy=0;" parent="1" source="tU8dhyVxo_mKHJtzlASq-2" target="tU8dhyVxo_mKHJtzlASq-11" edge="1">
          <mxGeometry width="50" height="50" relative="1" as="geometry">
            <mxPoint x="464" y="90" as="sourcePoint" />
            <mxPoint x="474" y="90" as="targetPoint" />
          </mxGeometry>
        </mxCell>
        <mxCell id="tU8dhyVxo_mKHJtzlASq-42" value="" style="group" parent="1" vertex="1" connectable="0">
          <mxGeometry x="474" y="79" width="21" height="22" as="geometry" />
        </mxCell>
        <mxCell id="tU8dhyVxo_mKHJtzlASq-11" value="" style="ellipse;whiteSpace=wrap;html=1;aspect=fixed;movable=1;resizable=1;rotatable=1;deletable=1;editable=1;locked=0;connectable=1;" parent="tU8dhyVxo_mKHJtzlASq-42" vertex="1">
          <mxGeometry y="1" width="20" height="20" as="geometry" />
        </mxCell>
        <mxCell id="tU8dhyVxo_mKHJtzlASq-12" value="" style="rounded=0;whiteSpace=wrap;html=1;fillColor=default;strokeColor=none;movable=1;resizable=1;rotatable=1;deletable=1;editable=1;locked=0;connectable=1;" parent="tU8dhyVxo_mKHJtzlASq-42" vertex="1">
          <mxGeometry x="10" width="11" height="22" as="geometry" />
        </mxCell>
        <mxCell id="tU8dhyVxo_mKHJtzlASq-123" value="" style="group" parent="1" vertex="1" connectable="0">
          <mxGeometry x="155" y="40" width="100" height="300" as="geometry" />
        </mxCell>
        <mxCell id="tU8dhyVxo_mKHJtzlASq-73" value="" style="rounded=0;whiteSpace=wrap;html=1;movable=1;resizable=1;rotatable=1;deletable=1;editable=1;locked=0;connectable=1;" parent="tU8dhyVxo_mKHJtzlASq-123" vertex="1">
          <mxGeometry width="100" height="300" as="geometry" />
        </mxCell>
        <mxCell id="tU8dhyVxo_mKHJtzlASq-74" value="&lt;div style=&quot;font-size: 8px;&quot;&gt;&amp;lt;&amp;lt;component&amp;gt;&amp;gt;&lt;/div&gt;&lt;div style=&quot;font-size: 8px;&quot;&gt;handlers&lt;br style=&quot;font-size: 8px;&quot;&gt;&lt;/div&gt;" style="text;html=1;strokeColor=none;fillColor=none;align=center;verticalAlign=middle;whiteSpace=wrap;rounded=0;fontSize=8;fontFamily=Ubuntu Mono;fontSource=https%3A%2F%2Ffonts.googleapis.com%2Fcss%3Ffamily%3DUbuntu%2BMono;movable=1;resizable=1;rotatable=1;deletable=1;editable=1;locked=0;connectable=1;" parent="tU8dhyVxo_mKHJtzlASq-123" vertex="1">
          <mxGeometry width="100" height="30" as="geometry" />
        </mxCell>
        <mxCell id="tU8dhyVxo_mKHJtzlASq-75" value="" style="endArrow=none;html=1;rounded=0;movable=1;resizable=1;rotatable=1;deletable=1;editable=1;locked=0;connectable=1;" parent="tU8dhyVxo_mKHJtzlASq-123" edge="1">
          <mxGeometry width="50" height="50" relative="1" as="geometry">
            <mxPoint y="30" as="sourcePoint" />
            <mxPoint x="100" y="30" as="targetPoint" />
          </mxGeometry>
        </mxCell>
        <mxCell id="tU8dhyVxo_mKHJtzlASq-125" value="" style="group" parent="1" vertex="1" connectable="0">
          <mxGeometry x="360" y="40" width="100" height="300" as="geometry" />
        </mxCell>
        <mxCell id="tU8dhyVxo_mKHJtzlASq-2" value="" style="rounded=0;whiteSpace=wrap;html=1;movable=1;resizable=1;rotatable=1;deletable=1;editable=1;locked=0;connectable=1;" parent="tU8dhyVxo_mKHJtzlASq-125" vertex="1">
          <mxGeometry width="100" height="300" as="geometry" />
        </mxCell>
        <mxCell id="tU8dhyVxo_mKHJtzlASq-3" value="&lt;div style=&quot;font-size: 8px;&quot;&gt;&amp;lt;&amp;lt;component&amp;gt;&amp;gt;&lt;/div&gt;&lt;div style=&quot;font-size: 8px;&quot;&gt;db&lt;br style=&quot;font-size: 8px;&quot;&gt;&lt;/div&gt;" style="text;html=1;strokeColor=none;fillColor=none;align=center;verticalAlign=middle;whiteSpace=wrap;rounded=0;fontSize=8;fontFamily=Ubuntu Mono;fontSource=https%3A%2F%2Ffonts.googleapis.com%2Fcss%3Ffamily%3DUbuntu%2BMono;movable=1;resizable=1;rotatable=1;deletable=1;editable=1;locked=0;connectable=1;" parent="tU8dhyVxo_mKHJtzlASq-125" vertex="1">
          <mxGeometry width="100" height="30" as="geometry" />
        </mxCell>
        <mxCell id="tU8dhyVxo_mKHJtzlASq-4" value="" style="endArrow=none;html=1;rounded=0;movable=1;resizable=1;rotatable=1;deletable=1;editable=1;locked=0;connectable=1;" parent="tU8dhyVxo_mKHJtzlASq-125" edge="1">
          <mxGeometry width="50" height="50" relative="1" as="geometry">
            <mxPoint y="30" as="sourcePoint" />
            <mxPoint x="100" y="30" as="targetPoint" />
          </mxGeometry>
        </mxCell>
        <mxCell id="tU8dhyVxo_mKHJtzlASq-142" value="get_user" style="text;html=1;strokeColor=none;fillColor=none;align=right;verticalAlign=middle;whiteSpace=wrap;rounded=0;fontFamily=Ubuntu Mono;fontSource=https%3A%2F%2Ffonts.googleapis.com%2Fcss%3Ffamily%3DUbuntu%2BMono;fontSize=8;movable=1;resizable=1;rotatable=1;deletable=1;editable=1;locked=0;connectable=1;" parent="1" vertex="1">
          <mxGeometry x="40" y="85" width="80" height="10" as="geometry" />
        </mxCell>
        <mxCell id="tU8dhyVxo_mKHJtzlASq-143" value="set_username" style="text;html=1;strokeColor=none;fillColor=none;align=right;verticalAlign=middle;whiteSpace=wrap;rounded=0;fontFamily=Ubuntu Mono;fontSource=https%3A%2F%2Ffonts.googleapis.com%2Fcss%3Ffamily%3DUbuntu%2BMono;fontSize=8;movable=1;resizable=1;rotatable=1;deletable=1;editable=1;locked=0;connectable=1;" parent="1" vertex="1">
          <mxGeometry x="40" y="115" width="80" height="10" as="geometry" />
        </mxCell>
        <mxCell id="tU8dhyVxo_mKHJtzlASq-144" value="list_files" style="text;html=1;strokeColor=none;fillColor=none;align=right;verticalAlign=middle;whiteSpace=wrap;rounded=0;fontFamily=Ubuntu Mono;fontSource=https%3A%2F%2Ffonts.googleapis.com%2Fcss%3Ffamily%3DUbuntu%2BMono;fontSize=8;movable=1;resizable=1;rotatable=1;deletable=1;editable=1;locked=0;connectable=1;" parent="1" vertex="1">
          <mxGeometry x="40" y="145" width="80" height="10" as="geometry" />
        </mxCell>
        <mxCell id="tU8dhyVxo_mKHJtzlASq-145" value="upload_file" style="text;html=1;strokeColor=none;fillColor=none;align=right;verticalAlign=middle;whiteSpace=wrap;rounded=0;fontFamily=Ubuntu Mono;fontSource=https%3A%2F%2Ffonts.googleapis.com%2Fcss%3Ffamily%3DUbuntu%2BMono;fontSize=8;movable=1;resizable=1;rotatable=1;deletable=1;editable=1;locked=0;connectable=1;" parent="1" vertex="1">
          <mxGeometry x="40" y="175" width="80" height="10" as="geometry" />
        </mxCell>
        <mxCell id="tU8dhyVxo_mKHJtzlASq-146" value="download_file" style="text;html=1;strokeColor=none;fillColor=none;align=right;verticalAlign=middle;whiteSpace=wrap;rounded=0;fontFamily=Ubuntu Mono;fontSource=https%3A%2F%2Ffonts.googleapis.com%2Fcss%3Ffamily%3DUbuntu%2BMono;fontSize=8;movable=1;resizable=1;rotatable=1;deletable=1;editable=1;locked=0;connectable=1;" parent="1" vertex="1">
          <mxGeometry x="40" y="205" width="80" height="10" as="geometry" />
        </mxCell>
        <mxCell id="tU8dhyVxo_mKHJtzlASq-147" value="delete_file" style="text;html=1;strokeColor=none;fillColor=none;align=right;verticalAlign=middle;whiteSpace=wrap;rounded=0;fontFamily=Ubuntu Mono;fontSource=https%3A%2F%2Ffonts.googleapis.com%2Fcss%3Ffamily%3DUbuntu%2BMono;fontSize=8;movable=1;resizable=1;rotatable=1;deletable=1;editable=1;locked=0;connectable=1;" parent="1" vertex="1">
          <mxGeometry x="40" y="235" width="80" height="10" as="geometry" />
        </mxCell>
        <mxCell id="tU8dhyVxo_mKHJtzlASq-148" value="grant_access" style="text;html=1;strokeColor=none;fillColor=none;align=right;verticalAlign=middle;whiteSpace=wrap;rounded=0;fontFamily=Ubuntu Mono;fontSource=https%3A%2F%2Ffonts.googleapis.com%2Fcss%3Ffamily%3DUbuntu%2BMono;fontSize=8;movable=1;resizable=1;rotatable=1;deletable=1;editable=1;locked=0;connectable=1;" parent="1" vertex="1">
          <mxGeometry x="40" y="265" width="80" height="10" as="geometry" />
        </mxCell>
        <mxCell id="tU8dhyVxo_mKHJtzlASq-149" value="revoke_access" style="text;html=1;strokeColor=none;fillColor=none;align=right;verticalAlign=middle;whiteSpace=wrap;rounded=0;fontFamily=Ubuntu Mono;fontSource=https%3A%2F%2Ffonts.googleapis.com%2Fcss%3Ffamily%3DUbuntu%2BMono;fontSize=8;movable=1;resizable=1;rotatable=1;deletable=1;editable=1;locked=0;connectable=1;" parent="1" vertex="1">
          <mxGeometry x="40" y="295" width="80" height="10" as="geometry" />
        </mxCell>
        <mxCell id="tU8dhyVxo_mKHJtzlASq-150" value="" style="endArrow=none;html=1;rounded=0;entryX=0;entryY=0.5;entryDx=0;entryDy=0;exitX=0.25;exitY=1;exitDx=0;exitDy=0;" parent="1" source="tU8dhyVxo_mKHJtzlASq-73" target="tU8dhyVxo_mKHJtzlASq-152" edge="1">
          <mxGeometry width="50" height="50" relative="1" as="geometry">
            <mxPoint x="200" y="371" as="sourcePoint" />
            <mxPoint x="225" y="360" as="targetPoint" />
          </mxGeometry>
        </mxCell>
        <mxCell id="tU8dhyVxo_mKHJtzlASq-163" value="ReceiveAndVerifyPacket" style="text;html=1;strokeColor=none;fillColor=none;align=center;verticalAlign=middle;whiteSpace=wrap;rounded=0;fontFamily=Ubuntu Mono;fontSource=https%3A%2F%2Ffonts.googleapis.com%2Fcss%3Ffamily%3DUbuntu%2BMono;fontSize=8;movable=1;resizable=1;rotatable=1;deletable=1;editable=1;locked=0;connectable=1;" parent="1" vertex="1">
          <mxGeometry x="75" y="365.5" width="90" height="10" as="geometry" />
        </mxCell>
        <mxCell id="tU8dhyVxo_mKHJtzlASq-164" value="" style="group" parent="1" vertex="1" connectable="0">
          <mxGeometry x="155" y="395" width="100" height="100" as="geometry" />
        </mxCell>
        <mxCell id="tU8dhyVxo_mKHJtzlASq-158" value="" style="rounded=0;whiteSpace=wrap;html=1;movable=1;resizable=1;rotatable=1;deletable=1;editable=1;locked=0;connectable=1;" parent="tU8dhyVxo_mKHJtzlASq-164" vertex="1">
          <mxGeometry width="100" height="100" as="geometry" />
        </mxCell>
        <mxCell id="tU8dhyVxo_mKHJtzlASq-159" value="&lt;div style=&quot;font-size: 8px;&quot;&gt;&amp;lt;&amp;lt;component&amp;gt;&amp;gt;&lt;/div&gt;&lt;div style=&quot;font-size: 8px;&quot;&gt;protocol&lt;br style=&quot;font-size: 8px;&quot;&gt;&lt;/div&gt;" style="text;html=1;strokeColor=none;fillColor=none;align=center;verticalAlign=middle;whiteSpace=wrap;rounded=0;fontSize=8;fontFamily=Ubuntu Mono;fontSource=https%3A%2F%2Ffonts.googleapis.com%2Fcss%3Ffamily%3DUbuntu%2BMono;movable=1;resizable=1;rotatable=1;deletable=1;editable=1;locked=0;connectable=1;" parent="tU8dhyVxo_mKHJtzlASq-164" vertex="1">
          <mxGeometry width="100" height="30" as="geometry" />
        </mxCell>
        <mxCell id="tU8dhyVxo_mKHJtzlASq-160" value="" style="endArrow=none;html=1;rounded=0;movable=1;resizable=1;rotatable=1;deletable=1;editable=1;locked=0;connectable=1;" parent="tU8dhyVxo_mKHJtzlASq-164" edge="1">
          <mxGeometry width="50" height="50" relative="1" as="geometry">
            <mxPoint y="30" as="sourcePoint" />
            <mxPoint x="100" y="30" as="targetPoint" />
          </mxGeometry>
        </mxCell>
        <mxCell id="tU8dhyVxo_mKHJtzlASq-165" value="" style="group" parent="1" vertex="1" connectable="0">
          <mxGeometry x="360" y="395" width="100" height="100" as="geometry" />
        </mxCell>
        <mxCell id="tU8dhyVxo_mKHJtzlASq-166" value="" style="rounded=0;whiteSpace=wrap;html=1;movable=1;resizable=1;rotatable=1;deletable=1;editable=1;locked=0;connectable=1;" parent="tU8dhyVxo_mKHJtzlASq-165" vertex="1">
          <mxGeometry width="100" height="100" as="geometry" />
        </mxCell>
        <mxCell id="tU8dhyVxo_mKHJtzlASq-167" value="&lt;div style=&quot;font-size: 8px;&quot;&gt;&amp;lt;&amp;lt;component&amp;gt;&amp;gt;&lt;/div&gt;&lt;div style=&quot;font-size: 8px;&quot;&gt;config&lt;br style=&quot;font-size: 8px;&quot;&gt;&lt;/div&gt;" style="text;html=1;strokeColor=none;fillColor=none;align=center;verticalAlign=middle;whiteSpace=wrap;rounded=0;fontSize=8;fontFamily=Ubuntu Mono;fontSource=https%3A%2F%2Ffonts.googleapis.com%2Fcss%3Ffamily%3DUbuntu%2BMono;movable=1;resizable=1;rotatable=1;deletable=1;editable=1;locked=0;connectable=1;" parent="tU8dhyVxo_mKHJtzlASq-165" vertex="1">
          <mxGeometry width="100" height="30" as="geometry" />
        </mxCell>
        <mxCell id="tU8dhyVxo_mKHJtzlASq-168" value="" style="endArrow=none;html=1;rounded=0;movable=1;resizable=1;rotatable=1;deletable=1;editable=1;locked=0;connectable=1;" parent="tU8dhyVxo_mKHJtzlASq-165" edge="1">
          <mxGeometry width="50" height="50" relative="1" as="geometry">
            <mxPoint y="30" as="sourcePoint" />
            <mxPoint x="100" y="30" as="targetPoint" />
          </mxGeometry>
        </mxCell>
        <mxCell id="tU8dhyVxo_mKHJtzlASq-169" value="" style="endArrow=none;html=1;rounded=0;movable=1;resizable=1;rotatable=1;deletable=1;editable=1;locked=0;connectable=1;entryX=0.5;entryY=0;entryDx=0;entryDy=0;exitX=0.5;exitY=1;exitDx=0;exitDy=0;" parent="1" source="tU8dhyVxo_mKHJtzlASq-170" target="tU8dhyVxo_mKHJtzlASq-167" edge="1">
          <mxGeometry width="50" height="50" relative="1" as="geometry">
            <mxPoint x="380" y="365" as="sourcePoint" />
            <mxPoint x="385" y="355" as="targetPoint" />
          </mxGeometry>
        </mxCell>
        <mxCell id="tU8dhyVxo_mKHJtzlASq-170" value="" style="ellipse;whiteSpace=wrap;html=1;aspect=fixed;movable=1;resizable=1;rotatable=1;deletable=1;editable=1;locked=0;connectable=1;" parent="1" vertex="1">
          <mxGeometry x="405" y="365" width="10" height="10" as="geometry" />
        </mxCell>
        <mxCell id="tU8dhyVxo_mKHJtzlASq-152" value="" style="ellipse;whiteSpace=wrap;html=1;aspect=fixed;movable=1;resizable=1;rotatable=1;deletable=1;editable=1;locked=0;connectable=1;rotation=90;" parent="1" vertex="1">
          <mxGeometry x="170" y="360" width="20" height="20" as="geometry" />
        </mxCell>
        <mxCell id="tU8dhyVxo_mKHJtzlASq-154" value="" style="rounded=0;whiteSpace=wrap;html=1;strokeColor=none;" parent="1" vertex="1">
          <mxGeometry x="169" y="370" width="22" height="11" as="geometry" />
        </mxCell>
        <mxCell id="tU8dhyVxo_mKHJtzlASq-162" value="" style="ellipse;whiteSpace=wrap;html=1;aspect=fixed;movable=1;resizable=1;rotatable=1;deletable=1;editable=1;locked=0;connectable=1;" parent="1" vertex="1">
          <mxGeometry x="175" y="365.5" width="10" height="10" as="geometry" />
        </mxCell>
        <mxCell id="tU8dhyVxo_mKHJtzlASq-183" value="" style="endArrow=none;html=1;rounded=0;entryX=0;entryY=0.5;entryDx=0;entryDy=0;exitX=0.75;exitY=1;exitDx=0;exitDy=0;" parent="1" source="tU8dhyVxo_mKHJtzlASq-73" target="tU8dhyVxo_mKHJtzlASq-182" edge="1">
          <mxGeometry width="50" height="50" relative="1" as="geometry">
            <mxPoint x="210" y="345.5" as="sourcePoint" />
            <mxPoint x="210" y="365.5" as="targetPoint" />
          </mxGeometry>
        </mxCell>
        <mxCell id="tU8dhyVxo_mKHJtzlASq-185" value="" style="group" parent="1" vertex="1" connectable="0">
          <mxGeometry x="219" y="360" width="22" height="21" as="geometry" />
        </mxCell>
        <mxCell id="tU8dhyVxo_mKHJtzlASq-182" value="" style="ellipse;whiteSpace=wrap;html=1;aspect=fixed;movable=1;resizable=1;rotatable=1;deletable=1;editable=1;locked=0;connectable=1;rotation=90;" parent="tU8dhyVxo_mKHJtzlASq-185" vertex="1">
          <mxGeometry x="1" width="20" height="20" as="geometry" />
        </mxCell>
        <mxCell id="tU8dhyVxo_mKHJtzlASq-184" value="" style="rounded=0;whiteSpace=wrap;html=1;strokeColor=none;" parent="tU8dhyVxo_mKHJtzlASq-185" vertex="1">
          <mxGeometry y="10" width="22" height="11" as="geometry" />
        </mxCell>
        <mxCell id="tU8dhyVxo_mKHJtzlASq-186" value="" style="ellipse;whiteSpace=wrap;html=1;aspect=fixed;movable=1;resizable=1;rotatable=1;deletable=1;editable=1;locked=0;connectable=1;" parent="tU8dhyVxo_mKHJtzlASq-185" vertex="1">
          <mxGeometry x="6" y="5.5" width="10" height="10" as="geometry" />
        </mxCell>
        <mxCell id="tU8dhyVxo_mKHJtzlASq-161" value="" style="endArrow=none;html=1;rounded=0;movable=1;resizable=1;rotatable=1;deletable=1;editable=1;locked=0;connectable=1;exitX=0.5;exitY=1;exitDx=0;exitDy=0;entryX=0.25;entryY=0;entryDx=0;entryDy=0;" parent="1" source="tU8dhyVxo_mKHJtzlASq-162" target="tU8dhyVxo_mKHJtzlASq-159" edge="1">
          <mxGeometry width="50" height="50" relative="1" as="geometry">
            <mxPoint x="226" y="405.1" as="sourcePoint" />
            <mxPoint x="210" y="400" as="targetPoint" />
          </mxGeometry>
        </mxCell>
        <mxCell id="tU8dhyVxo_mKHJtzlASq-187" value="" style="endArrow=none;html=1;rounded=0;movable=1;resizable=1;rotatable=1;deletable=1;editable=1;locked=0;connectable=1;exitX=0.5;exitY=1;exitDx=0;exitDy=0;" parent="1" source="tU8dhyVxo_mKHJtzlASq-186" edge="1">
          <mxGeometry width="50" height="50" relative="1" as="geometry">
            <mxPoint x="230" y="380.5" as="sourcePoint" />
            <mxPoint x="410" y="385" as="targetPoint" />
            <Array as="points">
              <mxPoint x="230" y="385" />
              <mxPoint x="260" y="385" />
              <mxPoint x="270" y="385" />
            </Array>
          </mxGeometry>
        </mxCell>
        <mxCell id="tU8dhyVxo_mKHJtzlASq-191" value="" style="endArrow=none;html=1;rounded=0;movable=1;resizable=1;rotatable=1;deletable=1;editable=1;locked=0;connectable=1;entryX=0;entryY=0.5;entryDx=0;entryDy=0;exitX=0.5;exitY=1;exitDx=0;exitDy=0;" parent="1" source="tU8dhyVxo_mKHJtzlASq-2" target="tU8dhyVxo_mKHJtzlASq-189" edge="1">
          <mxGeometry width="50" height="50" relative="1" as="geometry">
            <mxPoint x="430" y="351" as="sourcePoint" />
            <mxPoint x="430" y="371" as="targetPoint" />
          </mxGeometry>
        </mxCell>
        <mxCell id="tU8dhyVxo_mKHJtzlASq-193" value="" style="group" parent="1" vertex="1" connectable="0">
          <mxGeometry x="280" y="434" width="21" height="22" as="geometry" />
        </mxCell>
        <mxCell id="tU8dhyVxo_mKHJtzlASq-194" value="" style="ellipse;whiteSpace=wrap;html=1;aspect=fixed;movable=1;resizable=1;rotatable=1;deletable=1;editable=1;locked=0;connectable=1;" parent="tU8dhyVxo_mKHJtzlASq-193" vertex="1">
          <mxGeometry y="1" width="20" height="20" as="geometry" />
        </mxCell>
        <mxCell id="tU8dhyVxo_mKHJtzlASq-195" value="" style="rounded=0;whiteSpace=wrap;html=1;fillColor=default;strokeColor=none;movable=1;resizable=1;rotatable=1;deletable=1;editable=1;locked=0;connectable=1;" parent="tU8dhyVxo_mKHJtzlASq-193" vertex="1">
          <mxGeometry x="10" width="11" height="22" as="geometry" />
        </mxCell>
        <mxCell id="tU8dhyVxo_mKHJtzlASq-196" value="" style="ellipse;whiteSpace=wrap;html=1;aspect=fixed;movable=1;resizable=1;rotatable=1;deletable=1;editable=1;locked=0;connectable=1;" parent="tU8dhyVxo_mKHJtzlASq-193" vertex="1">
          <mxGeometry x="5" y="6" width="10" height="10" as="geometry" />
        </mxCell>
        <mxCell id="tU8dhyVxo_mKHJtzlASq-197" value="" style="endArrow=none;html=1;rounded=0;exitX=1;exitY=0.5;exitDx=0;exitDy=0;entryX=0;entryY=0.5;entryDx=0;entryDy=0;" parent="1" source="tU8dhyVxo_mKHJtzlASq-158" target="tU8dhyVxo_mKHJtzlASq-194" edge="1">
          <mxGeometry width="50" height="50" relative="1" as="geometry">
            <mxPoint x="290" y="470" as="sourcePoint" />
            <mxPoint x="340" y="420" as="targetPoint" />
          </mxGeometry>
        </mxCell>
        <mxCell id="tU8dhyVxo_mKHJtzlASq-198" value="" style="endArrow=none;html=1;rounded=0;exitX=1;exitY=0.5;exitDx=0;exitDy=0;" parent="1" edge="1">
          <mxGeometry width="50" height="50" relative="1" as="geometry">
            <mxPoint x="295" y="445" as="sourcePoint" />
            <mxPoint x="320" y="385" as="targetPoint" />
            <Array as="points">
              <mxPoint x="320" y="445" />
            </Array>
          </mxGeometry>
        </mxCell>
        <mxCell id="tU8dhyVxo_mKHJtzlASq-199" value="config" style="text;html=1;strokeColor=none;fillColor=none;align=center;verticalAlign=middle;whiteSpace=wrap;rounded=0;fontFamily=Ubuntu Mono;fontSource=https%3A%2F%2Ffonts.googleapis.com%2Fcss%3Ffamily%3DUbuntu%2BMono;fontSize=8;movable=1;resizable=1;rotatable=1;deletable=1;editable=1;locked=0;connectable=1;" parent="1" vertex="1">
          <mxGeometry x="255" y="370" width="125" height="10" as="geometry" />
        </mxCell>
        <mxCell id="tU8dhyVxo_mKHJtzlASq-200" value="MongoDB" style="text;html=1;strokeColor=none;fillColor=none;align=left;verticalAlign=middle;whiteSpace=wrap;rounded=0;fontFamily=Ubuntu Mono;fontSource=https%3A%2F%2Ffonts.googleapis.com%2Fcss%3Ffamily%3DUbuntu%2BMono;fontSize=8;movable=1;resizable=1;rotatable=1;deletable=1;editable=1;locked=0;connectable=1;" parent="1" vertex="1">
          <mxGeometry x="485" y="85" width="40" height="10" as="geometry" />
        </mxCell>
        <mxCell id="RlHMgZMCsV71h-hDCZHG-1" value="" style="group" vertex="1" connectable="0" parent="1">
          <mxGeometry x="565" y="395" width="100" height="100" as="geometry" />
        </mxCell>
        <mxCell id="RlHMgZMCsV71h-hDCZHG-2" value="" style="rounded=0;whiteSpace=wrap;html=1;movable=1;resizable=1;rotatable=1;deletable=1;editable=1;locked=0;connectable=1;" vertex="1" parent="RlHMgZMCsV71h-hDCZHG-1">
          <mxGeometry width="100" height="100" as="geometry" />
        </mxCell>
        <mxCell id="RlHMgZMCsV71h-hDCZHG-3" value="&lt;div style=&quot;font-size: 8px;&quot;&gt;&amp;lt;&amp;lt;component&amp;gt;&amp;gt;&lt;/div&gt;&lt;div style=&quot;font-size: 8px;&quot;&gt;main&lt;br style=&quot;font-size: 8px;&quot;&gt;&lt;/div&gt;" style="text;html=1;strokeColor=none;fillColor=none;align=center;verticalAlign=middle;whiteSpace=wrap;rounded=0;fontSize=8;fontFamily=Ubuntu Mono;fontSource=https%3A%2F%2Ffonts.googleapis.com%2Fcss%3Ffamily%3DUbuntu%2BMono;movable=1;resizable=1;rotatable=1;deletable=1;editable=1;locked=0;connectable=1;" vertex="1" parent="RlHMgZMCsV71h-hDCZHG-1">
          <mxGeometry width="100" height="30" as="geometry" />
        </mxCell>
        <mxCell id="RlHMgZMCsV71h-hDCZHG-4" value="" style="endArrow=none;html=1;rounded=0;movable=1;resizable=1;rotatable=1;deletable=1;editable=1;locked=0;connectable=1;" edge="1" parent="RlHMgZMCsV71h-hDCZHG-1">
          <mxGeometry width="50" height="50" relative="1" as="geometry">
            <mxPoint y="30" as="sourcePoint" />
            <mxPoint x="100" y="30" as="targetPoint" />
          </mxGeometry>
        </mxCell>
        <mxCell id="RlHMgZMCsV71h-hDCZHG-5" value="" style="endArrow=none;html=1;rounded=0;movable=1;resizable=1;rotatable=1;deletable=1;editable=1;locked=0;connectable=1;exitX=0;exitY=0.5;exitDx=0;exitDy=0;entryX=0.998;entryY=0.966;entryDx=0;entryDy=0;entryPerimeter=0;" edge="1" parent="1" source="RlHMgZMCsV71h-hDCZHG-6" target="tU8dhyVxo_mKHJtzlASq-2">
          <mxGeometry width="50" height="50" relative="1" as="geometry">
            <mxPoint x="470" y="305" as="sourcePoint" />
            <mxPoint x="470" y="330" as="targetPoint" />
          </mxGeometry>
        </mxCell>
        <mxCell id="RlHMgZMCsV71h-hDCZHG-6" value="" style="ellipse;whiteSpace=wrap;html=1;aspect=fixed;movable=1;resizable=1;rotatable=1;deletable=1;editable=1;locked=0;connectable=1;" vertex="1" parent="1">
          <mxGeometry x="496" y="325" width="10" height="10" as="geometry" />
        </mxCell>
        <mxCell id="RlHMgZMCsV71h-hDCZHG-7" value="" style="endArrow=none;html=1;rounded=0;movable=1;resizable=1;rotatable=1;deletable=1;editable=1;locked=0;connectable=1;exitX=0;exitY=0.5;exitDx=0;exitDy=0;entryX=1;entryY=0.5;entryDx=0;entryDy=0;" edge="1" parent="1" source="RlHMgZMCsV71h-hDCZHG-8" target="tU8dhyVxo_mKHJtzlASq-166">
          <mxGeometry width="50" height="50" relative="1" as="geometry">
            <mxPoint x="484" y="426" as="sourcePoint" />
            <mxPoint x="474" y="451" as="targetPoint" />
          </mxGeometry>
        </mxCell>
        <mxCell id="RlHMgZMCsV71h-hDCZHG-8" value="" style="ellipse;whiteSpace=wrap;html=1;aspect=fixed;movable=1;resizable=1;rotatable=1;deletable=1;editable=1;locked=0;connectable=1;" vertex="1" parent="1">
          <mxGeometry x="495.5" y="440" width="10" height="10" as="geometry" />
        </mxCell>
        <mxCell id="RlHMgZMCsV71h-hDCZHG-18" value="" style="endArrow=none;html=1;rounded=0;entryX=0.5;entryY=0;entryDx=0;entryDy=0;exitX=1;exitY=0.5;exitDx=0;exitDy=0;" edge="1" parent="1" source="RlHMgZMCsV71h-hDCZHG-13" target="RlHMgZMCsV71h-hDCZHG-3">
          <mxGeometry width="50" height="50" relative="1" as="geometry">
            <mxPoint x="480" y="420" as="sourcePoint" />
            <mxPoint x="530" y="370" as="targetPoint" />
            <Array as="points">
              <mxPoint x="615" y="330" />
            </Array>
          </mxGeometry>
        </mxCell>
        <mxCell id="RlHMgZMCsV71h-hDCZHG-19" value="" style="endArrow=none;html=1;rounded=0;exitX=1;exitY=0.5;exitDx=0;exitDy=0;entryX=0;entryY=0.5;entryDx=0;entryDy=0;" edge="1" parent="1" source="RlHMgZMCsV71h-hDCZHG-16" target="RlHMgZMCsV71h-hDCZHG-2">
          <mxGeometry width="50" height="50" relative="1" as="geometry">
            <mxPoint x="490" y="480" as="sourcePoint" />
            <mxPoint x="540" y="430" as="targetPoint" />
          </mxGeometry>
        </mxCell>
        <mxCell id="RlHMgZMCsV71h-hDCZHG-20" value="init" style="text;html=1;strokeColor=none;fillColor=none;align=center;verticalAlign=middle;whiteSpace=wrap;rounded=0;fontFamily=Ubuntu Mono;fontSource=https%3A%2F%2Ffonts.googleapis.com%2Fcss%3Ffamily%3DUbuntu%2BMono;fontSize=8;movable=1;resizable=1;rotatable=1;deletable=1;editable=1;locked=0;connectable=1;" vertex="1" parent="1">
          <mxGeometry x="492.5" y="422" width="20" height="10" as="geometry" />
        </mxCell>
        <mxCell id="RlHMgZMCsV71h-hDCZHG-21" value="init" style="text;html=1;strokeColor=none;fillColor=none;align=center;verticalAlign=middle;whiteSpace=wrap;rounded=0;fontFamily=Ubuntu Mono;fontSource=https%3A%2F%2Ffonts.googleapis.com%2Fcss%3Ffamily%3DUbuntu%2BMono;fontSize=8;movable=1;resizable=1;rotatable=1;deletable=1;editable=1;locked=0;connectable=1;" vertex="1" parent="1">
          <mxGeometry x="492.5" y="307" width="20" height="10" as="geometry" />
        </mxCell>
      </root>
    </mxGraphModel>
  </diagram>
</mxfile>
